<mxfile host="app.diagrams.net" modified="2023-05-15T03:15:11.952Z" agent="Mozilla/5.0 (Windows NT 10.0; Win64; x64) AppleWebKit/537.36 (KHTML, like Gecko) Chrome/113.0.0.0 Safari/537.36" version="21.2.1" etag="BHGgwp3PIj3J4SPFMw3K" type="github">
  <diagram name="第 1 页" id="aasKgFVG1zb7dyKzAxKh">
    <mxGraphModel>
      <root>
        <mxCell id="0" />
        <mxCell id="1" parent="0" />
      </root>
    </mxGraphModel>
  </diagram>
</mxfile>
